<svg xmlns="http://www.w3.org/2000/svg" xmlns:xlink="http://www.w3.org/1999/xlink" width="200" zoomAndPan="magnify" viewBox="0 0 150 30.000001" height="40" preserveAspectRatio="xMidYMid meet" version="1.0"><defs><g/><clipPath id="id1"><path d="M 10 16 L 39 16 L 39 29.03125 L 10 29.03125 Z M 10 16 " clip-rule="nonzero"/></clipPath><clipPath id="id2"><path d="M 17 0 L 123 0 L 123 29.03125 L 17 29.03125 Z M 17 0 " clip-rule="nonzero"/></clipPath><clipPath id="id3"><path d="M 16.1875 4.15625 L 40.867188 4.15625 L 40.867188 28.835938 L 16.1875 28.835938 Z M 16.1875 4.15625 " clip-rule="nonzero"/></clipPath></defs><g clip-path="url(#id1)"><path fill="rgb(68.629456%, 0.389099%, 0.389099%)" d="M 18.640625 16.894531 L 17.882812 17.09375 L 10.449219 44.628906 L 11.203125 44.425781 L 24.183594 40.957031 L 24.9375 40.753906 L 38.070312 37.242188 L 38.824219 37.039062 L 18.640625 16.894531 " fill-opacity="1" fill-rule="nonzero"/></g><g clip-path="url(#id2)"><path fill="rgb(100%, 8.628845%, 8.628845%)" d="M 101.945312 -5.382812 L 17.882812 17.09375 L 38.070312 37.242188 L 122.132812 14.761719 L 101.945312 -5.382812 " fill-opacity="1" fill-rule="nonzero"/></g><g fill="rgb(100%, 100%, 100%)" fill-opacity="1"><g transform="translate(37.729924, 27.728076)"><g><path d="M 14.296875 -25.015625 C 11.441406 -25.015625 8.558594 -23.402344 7.609375 -20.492188 C 7.4375 -19.914062 7.320312 -19.367188 7.320312 -18.820312 C 7.320312 -16.3125 9.050781 -14.410156 10.691406 -12.394531 C 12.046875 -10.75 13.316406 -9.394531 13.316406 -7.667969 C 13.316406 -5.332031 11.269531 -3.917969 9.394531 -3.917969 C 7.320312 -3.949219 5.679688 -5.160156 5.707031 -7.207031 C 5.734375 -7.347656 5.734375 -7.492188 5.734375 -7.609375 C 5.734375 -9.25 4.640625 -10 3.515625 -10 C 2.363281 -10 1.183594 -9.164062 1.183594 -7.550781 C 1.039062 -2.96875 5.074219 0 9.425781 0 C 14.035156 0 18.214844 -3.632812 18.214844 -8.070312 C 18.214844 -11.066406 16.226562 -13.375 14.46875 -15.332031 L 14.121094 -15.707031 C 13.027344 -16.890625 12.164062 -18.1875 12.164062 -19.253906 C 12.164062 -20.519531 13.632812 -21.070312 14.296875 -21.039062 C 15.1875 -20.980469 15.824219 -20.347656 16.3125 -19.367188 C 16.6875 -18.476562 17.4375 -18.070312 18.214844 -18.070312 C 19.253906 -18.070312 20.289062 -18.847656 20.289062 -20.175781 C 20.289062 -20.464844 20.261719 -20.722656 20.175781 -21.039062 C 19.511719 -23.289062 17.234375 -25.015625 14.296875 -25.015625 Z M 14.296875 -25.015625 "/></g></g></g><g fill="rgb(100%, 100%, 100%)" fill-opacity="1"><g transform="translate(57.325336, 27.728076)"><g><path d="M 10.375 -7.40625 C 9.65625 -5.417969 7.839844 -3.746094 6.226562 -3.746094 C 5.304688 -3.746094 4.699219 -4.410156 4.699219 -5.304688 C 4.699219 -5.5625 4.753906 -5.910156 4.871094 -6.253906 L 10.433594 -21.761719 C 10.578125 -22.191406 10.636719 -22.566406 10.636719 -22.941406 C 10.636719 -24.269531 9.683594 -25.015625 8.648438 -25.015625 C 7.636719 -25.015625 6.601562 -24.296875 6.082031 -22.828125 L 0.347656 -6.917969 C 0.0859375 -6.195312 -0.0273438 -5.503906 -0.0273438 -4.84375 C -0.0273438 -1.960938 2.25 0 5.128906 0 C 7.175781 0 9.164062 -1.210938 10.492188 -2.507812 C 11.414062 -0.894531 13.257812 0 15.363281 0 C 19.683594 0 22.511719 -3.6875 24.269531 -8.90625 C 24.355469 -9.136719 24.382812 -9.339844 24.382812 -9.539062 C 24.382812 -10.492188 23.605469 -11.039062 22.742188 -11.039062 C 21.960938 -11.039062 21.125 -10.578125 20.78125 -9.597656 C 19.425781 -5.878906 17.582031 -3.632812 15.765625 -3.632812 C 14.957031 -3.632812 14.46875 -4.09375 14.46875 -4.8125 C 14.46875 -5.074219 14.496094 -5.359375 14.613281 -5.679688 L 20.40625 -21.761719 C 20.550781 -22.191406 20.609375 -22.566406 20.609375 -22.914062 C 20.609375 -24.269531 19.628906 -25.015625 18.53125 -25.015625 C 17.496094 -25.015625 16.429688 -24.296875 15.910156 -22.828125 Z M 10.375 -7.40625 "/></g></g></g><g fill="rgb(100%, 100%, 100%)" fill-opacity="1"><g transform="translate(76.719029, 27.728076)"><g><path d="M 20.550781 -9.570312 C 19.800781 -9.570312 19.050781 -9.195312 18.761719 -8.359375 C 17.753906 -5.503906 16.34375 -3.632812 14.871094 -3.632812 C 14.179688 -3.632812 13.777344 -4.148438 13.777344 -4.8125 C 13.777344 -5.074219 13.804688 -5.359375 13.921875 -5.648438 L 18.300781 -18.070312 C 18.5625 -18.761719 18.707031 -19.453125 18.707031 -20.234375 C 18.707031 -23.144531 16.226562 -25.015625 13.257812 -25.015625 C 12.363281 -25.015625 11.011719 -24.757812 9.886719 -23.71875 C 9.769531 -24.554688 8.789062 -25.015625 7.839844 -25.015625 C 7.003906 -25.015625 6.226562 -24.671875 5.9375 -23.863281 L -1.554688 -2.796875 C -1.671875 -2.507812 -1.699219 -2.21875 -1.699219 -1.988281 C -1.699219 -0.777344 -0.632812 0 0.519531 0 C 1.554688 0 2.535156 -0.632812 3.054688 -2.105469 L 8.90625 -18.617188 C 9.511719 -20.320312 11.039062 -21.210938 12.335938 -21.210938 C 13.257812 -21.210938 13.980469 -20.664062 13.980469 -19.714844 C 13.980469 -19.425781 13.949219 -19.109375 13.804688 -18.707031 L 9.742188 -7.234375 C 9.425781 -6.339844 9.28125 -5.449219 9.28125 -4.640625 C 9.28125 -1.757812 11.210938 0 14.035156 0 C 17.234375 0 20.40625 -2.277344 22.222656 -7.609375 C 22.277344 -7.8125 22.308594 -7.984375 22.308594 -8.15625 C 22.308594 -9.050781 21.445312 -9.570312 20.550781 -9.570312 Z M 20.550781 -9.570312 "/></g></g></g><g fill="rgb(100%, 100%, 100%)" fill-opacity="1"><g transform="translate(94.498983, 27.728076)"><g><path d="M 18.992188 -9.050781 C 18.386719 -7.292969 16.976562 -6.109375 15.246094 -5.996094 C 15.277344 -6.109375 15.304688 -6.195312 15.363281 -6.3125 L 19.078125 -17.148438 C 19.3125 -17.839844 19.425781 -18.476562 19.425781 -19.136719 C 19.425781 -22.566406 16.199219 -25.015625 12.449219 -25.015625 C 9.65625 -25.015625 6.167969 -23.691406 4.699219 -19.425781 L 0.894531 -8.359375 C 0.605469 -7.492188 0.402344 -6.570312 0.402344 -5.765625 C 0.402344 -2.046875 3.515625 0 7.003906 0 C 9.164062 0 11.441406 -0.605469 13.285156 -2.738281 C 13.804688 -2.652344 14.382812 -2.566406 14.988281 -2.566406 C 18.53125 -2.566406 21.585938 -4.957031 22.367188 -8.042969 C 22.421875 -8.300781 22.453125 -8.53125 22.453125 -8.734375 C 22.453125 -9.828125 21.644531 -10.347656 20.808594 -10.347656 C 20.03125 -10.347656 19.222656 -9.914062 18.992188 -9.050781 Z M 7.148438 -3.632812 C 5.878906 -3.632812 4.871094 -4.496094 4.871094 -5.765625 C 4.871094 -6.050781 4.929688 -6.425781 5.074219 -6.800781 L 9.164062 -18.648438 C 9.828125 -20.578125 11.296875 -21.386719 12.539062 -21.386719 C 13.835938 -21.386719 14.871094 -20.492188 14.871094 -19.253906 C 14.871094 -18.964844 14.8125 -18.675781 14.699219 -18.332031 L 11.730469 -9.597656 C 11.5 -9.683594 11.125 -9.769531 10.835938 -9.769531 C 9.425781 -9.769531 8.300781 -8.648438 8.300781 -7.261719 C 8.300781 -6.398438 8.703125 -5.820312 9.597656 -4.785156 C 8.90625 -4.035156 8.042969 -3.632812 7.148438 -3.632812 Z M 7.148438 -3.632812 "/></g></g></g><path fill="rgb(100%, 100%, 100%)" d="M 24.46875 16.855469 C 24.070312 16.855469 23.695312 17.011719 23.410156 17.292969 C 22.828125 17.878906 22.828125 18.828125 23.410156 19.414062 C 23.695312 19.699219 24.070312 19.855469 24.46875 19.855469 C 24.867188 19.855469 25.242188 19.699219 25.523438 19.414062 C 25.808594 19.132812 25.964844 18.753906 25.964844 18.355469 C 25.964844 17.953125 25.808594 17.578125 25.523438 17.292969 C 25.242188 17.011719 24.867188 16.855469 24.46875 16.855469 Z M 25.136719 19.027344 C 24.78125 19.382812 24.15625 19.386719 23.800781 19.027344 C 23.429688 18.65625 23.429688 18.050781 23.800781 17.683594 C 23.976562 17.503906 24.214844 17.40625 24.46875 17.40625 C 24.722656 17.40625 24.957031 17.503906 25.136719 17.683594 C 25.507812 18.054688 25.507812 18.65625 25.136719 19.027344 Z M 25.136719 19.027344 " fill-opacity="1" fill-rule="nonzero"/><path fill="rgb(100%, 100%, 100%)" d="M 26.484375 16.328125 C 26.429688 16.273438 26.34375 16.277344 26.292969 16.332031 C 26.238281 16.386719 26.242188 16.472656 26.296875 16.527344 L 26.355469 16.585938 C 26.355469 16.585938 26.371094 16.601562 26.371094 16.601562 C 26.398438 16.625 26.425781 16.640625 26.457031 16.640625 C 26.492188 16.640625 26.53125 16.625 26.558594 16.59375 C 26.613281 16.542969 26.605469 16.449219 26.550781 16.394531 Z M 26.484375 16.328125 " fill-opacity="1" fill-rule="nonzero"/><path fill="rgb(100%, 100%, 100%)" d="M 30.246094 11.058594 C 29.84375 11.058594 29.46875 11.214844 29.1875 11.496094 C 28.90625 11.78125 28.75 12.15625 28.75 12.558594 C 28.75 12.957031 28.90625 13.335938 29.1875 13.617188 C 29.46875 13.902344 29.84375 14.058594 30.246094 14.058594 C 30.644531 14.058594 31.019531 13.902344 31.300781 13.617188 C 31.882812 13.03125 31.882812 12.082031 31.300781 11.496094 C 31.019531 11.214844 30.644531 11.058594 30.246094 11.058594 Z M 30.914062 13.230469 C 30.554688 13.585938 29.933594 13.585938 29.574219 13.230469 C 29.398438 13.050781 29.296875 12.8125 29.296875 12.558594 C 29.296875 12.304688 29.394531 12.066406 29.574219 11.886719 C 29.753906 11.707031 29.992188 11.605469 30.246094 11.605469 C 30.496094 11.605469 30.734375 11.707031 30.914062 11.886719 C 31.28125 12.253906 31.28125 12.859375 30.914062 13.230469 Z M 30.914062 13.230469 " fill-opacity="1" fill-rule="nonzero"/><path fill="rgb(100%, 100%, 100%)" d="M 30.765625 10.03125 C 30.46875 9.738281 29.957031 9.738281 29.664062 10.03125 L 21.953125 17.773438 C 21.804688 17.917969 21.726562 18.117188 21.726562 18.324219 C 21.726562 18.53125 21.804688 18.726562 21.953125 18.875 L 23.949219 20.878906 C 24.09375 21.027344 24.289062 21.105469 24.5 21.105469 C 24.707031 21.105469 24.902344 21.027344 25.046875 20.878906 L 32.757812 13.140625 C 33.0625 12.835938 33.0625 12.339844 32.757812 12.035156 Z M 32.46875 12.847656 L 24.757812 20.585938 C 24.621094 20.726562 24.378906 20.726562 24.238281 20.585938 L 22.242188 18.585938 C 22.175781 18.515625 22.136719 18.421875 22.136719 18.324219 C 22.136719 18.226562 22.175781 18.132812 22.242188 18.0625 L 29.957031 10.324219 C 30.023438 10.253906 30.117188 10.21875 30.214844 10.21875 C 30.3125 10.21875 30.402344 10.253906 30.472656 10.324219 L 32.46875 12.328125 C 32.613281 12.46875 32.613281 12.703125 32.46875 12.847656 Z M 32.46875 12.847656 " fill-opacity="1" fill-rule="nonzero"/><path fill="rgb(100%, 100%, 100%)" d="M 35.574219 11.007812 L 30.890625 6.308594 C 30.59375 6.007812 30.070312 6.007812 29.773438 6.308594 L 18.242188 17.878906 C 17.933594 18.191406 17.933594 18.695312 18.242188 19.003906 L 22.925781 23.707031 C 23.074219 23.855469 23.273438 23.9375 23.484375 23.9375 C 23.699219 23.9375 23.894531 23.855469 24.046875 23.707031 L 35.574219 12.132812 C 35.882812 11.824219 35.886719 11.320312 35.574219 11.007812 Z M 35.1875 11.742188 L 23.65625 23.316406 C 23.566406 23.410156 23.40625 23.410156 23.3125 23.316406 L 18.628906 18.617188 C 18.535156 18.519531 18.535156 18.363281 18.628906 18.269531 L 30.160156 6.695312 C 30.207031 6.652344 30.269531 6.625 30.332031 6.625 C 30.398438 6.625 30.460938 6.652344 30.503906 6.695312 L 35.1875 11.398438 C 35.285156 11.492188 35.285156 11.648438 35.1875 11.742188 Z M 35.1875 11.742188 " fill-opacity="1" fill-rule="nonzero"/><path fill="rgb(100%, 100%, 100%)" d="M 28.472656 13.140625 C 28.285156 12.949219 27.953125 12.949219 27.765625 13.140625 L 25.050781 15.867188 C 24.855469 16.0625 24.855469 16.382812 25.050781 16.578125 L 26.144531 17.675781 C 26.238281 17.773438 26.367188 17.824219 26.5 17.824219 C 26.632812 17.824219 26.757812 17.773438 26.855469 17.675781 L 29.570312 14.953125 C 29.765625 14.753906 29.765625 14.4375 29.570312 14.238281 Z M 27.660156 13.828125 C 27.800781 14.109375 27.980469 14.371094 28.210938 14.597656 C 28.402344 14.792969 28.621094 14.957031 28.855469 15.085938 L 27.488281 16.457031 C 27.347656 16.230469 27.179688 16.015625 26.988281 15.824219 C 26.765625 15.601562 26.511719 15.410156 26.238281 15.253906 Z M 26.5625 17.386719 C 26.515625 17.429688 26.480469 17.429688 26.4375 17.386719 L 25.339844 16.285156 C 25.304688 16.25 25.304688 16.191406 25.339844 16.15625 L 25.523438 15.972656 C 25.632812 16.03125 25.742188 16.089844 25.84375 16.160156 C 25.867188 16.175781 25.894531 16.183594 25.917969 16.183594 C 25.964844 16.183594 26.007812 16.160156 26.03125 16.121094 C 26.074219 16.058594 26.058594 15.972656 25.996094 15.929688 C 25.910156 15.871094 25.820312 15.820312 25.726562 15.769531 L 26.039062 15.457031 C 26.316406 15.609375 26.570312 15.796875 26.792969 16.019531 C 26.984375 16.210938 27.148438 16.425781 27.289062 16.65625 Z M 29.277344 14.660156 L 29.058594 14.878906 C 28.820312 14.757812 28.597656 14.601562 28.402344 14.402344 C 28.175781 14.171875 27.996094 13.910156 27.871094 13.621094 L 28.054688 13.433594 C 28.078125 13.410156 28.105469 13.40625 28.121094 13.40625 C 28.132812 13.40625 28.160156 13.410156 28.183594 13.433594 L 29.277344 14.53125 C 29.3125 14.566406 29.3125 14.625 29.277344 14.660156 Z M 29.277344 14.660156 " fill-opacity="1" fill-rule="nonzero"/><path fill="rgb(100%, 100%, 100%)" d="M 30.449219 7.640625 C 30.371094 7.5625 30.238281 7.5625 30.160156 7.640625 L 19.570312 18.269531 C 19.492188 18.347656 19.492188 18.480469 19.570312 18.558594 C 19.609375 18.601562 19.664062 18.621094 19.714844 18.621094 C 19.769531 18.621094 19.820312 18.601562 19.863281 18.558594 L 30.449219 7.933594 C 30.53125 7.851562 30.53125 7.722656 30.449219 7.640625 Z M 30.449219 7.640625 " fill-opacity="1" fill-rule="nonzero"/><g clip-path="url(#id3)"><path fill="rgb(100%, 100%, 100%)" d="M 38.722656 24.546875 L 36.996094 24.546875 L 36.996094 16.332031 L 39.1875 14.128906 C 39.394531 13.921875 39.511719 13.648438 39.511719 13.351562 C 39.511719 13.058594 39.394531 12.785156 39.1875 12.578125 L 31.21875 4.574219 C 30.804688 4.160156 30.082031 4.160156 29.667969 4.574219 L 16.515625 17.777344 C 16.308594 17.984375 16.195312 18.261719 16.195312 18.554688 C 16.195312 18.847656 16.308594 19.125 16.515625 19.332031 L 24.488281 27.332031 C 24.695312 27.539062 24.96875 27.652344 25.261719 27.652344 C 25.554688 27.652344 25.828125 27.539062 26.035156 27.332031 L 28.398438 24.960938 L 30.460938 24.960938 C 31.128906 24.960938 31.667969 24.417969 31.667969 23.75 C 31.667969 23.308594 32.027344 22.949219 32.464844 22.949219 L 33.269531 22.949219 C 33.707031 22.949219 34.066406 23.308594 34.066406 23.75 C 34.066406 24.417969 34.605469 24.960938 35.273438 24.960938 L 36.585938 24.960938 L 36.585938 26.691406 C 36.585938 27.875 37.542969 28.835938 38.722656 28.835938 C 39.898438 28.835938 40.859375 27.875 40.859375 26.691406 C 40.859375 25.511719 39.898438 24.546875 38.722656 24.546875 Z M 35.191406 16.574219 C 35.136719 16.519531 35.105469 16.449219 35.105469 16.371094 C 35.105469 16.296875 35.136719 16.222656 35.191406 16.167969 C 35.242188 16.113281 35.316406 16.085938 35.390625 16.085938 C 35.46875 16.085938 35.539062 16.113281 35.59375 16.167969 C 35.648438 16.222656 35.675781 16.296875 35.675781 16.371094 C 35.675781 16.445312 35.648438 16.515625 35.597656 16.566406 L 35.585938 16.578125 C 35.480469 16.679688 35.296875 16.679688 35.191406 16.574219 Z M 36.042969 16.125 C 36.007812 16.03125 35.957031 15.949219 35.882812 15.878906 C 35.621094 15.613281 35.164062 15.613281 34.898438 15.878906 C 34.769531 16.007812 34.695312 16.183594 34.695312 16.371094 C 34.695312 16.558594 34.769531 16.734375 34.898438 16.867188 C 34.96875 16.9375 35.054688 16.988281 35.144531 17.023438 L 34.457031 17.710938 C 34.5 17.546875 34.457031 17.367188 34.328125 17.238281 L 34.128906 17.035156 C 33.941406 16.847656 33.613281 16.847656 33.425781 17.035156 L 33.167969 17.292969 C 32.976562 17.488281 32.976562 17.804688 33.167969 17.996094 L 33.371094 18.199219 C 33.464844 18.296875 33.589844 18.347656 33.722656 18.347656 C 33.761719 18.347656 33.804688 18.339844 33.84375 18.332031 L 30.199219 21.988281 C 30.253906 21.8125 30.214844 21.617188 30.082031 21.480469 L 29.878906 21.277344 C 29.691406 21.089844 29.363281 21.089844 29.175781 21.277344 L 28.917969 21.535156 C 28.726562 21.730469 28.726562 22.046875 28.917969 22.238281 L 29.121094 22.441406 C 29.214844 22.539062 29.339844 22.589844 29.472656 22.589844 C 29.527344 22.589844 29.578125 22.578125 29.625 22.5625 L 28.914062 23.277344 C 28.878906 23.179688 28.824219 23.089844 28.75 23.015625 C 28.488281 22.75 28.027344 22.75 27.765625 23.015625 C 27.632812 23.148438 27.5625 23.320312 27.5625 23.507812 C 27.5625 23.695312 27.632812 23.871094 27.765625 24.003906 C 27.839844 24.078125 27.929688 24.132812 28.027344 24.167969 L 27.34375 24.855469 L 26.070312 23.070312 C 26.058594 23.050781 26.058594 23.023438 26.074219 23.007812 L 34.75 14.304688 C 34.765625 14.289062 34.789062 14.285156 34.808594 14.296875 L 36.699219 15.464844 Z M 34.039062 17.652344 L 33.785156 17.910156 C 33.738281 17.953125 33.707031 17.953125 33.660156 17.910156 L 33.460938 17.707031 C 33.425781 17.671875 33.425781 17.617188 33.460938 17.585938 L 33.714844 17.328125 C 33.738281 17.304688 33.761719 17.300781 33.777344 17.300781 C 33.789062 17.300781 33.816406 17.304688 33.835938 17.328125 L 34.039062 17.53125 C 34.074219 17.566406 34.074219 17.617188 34.039062 17.652344 Z M 29.789062 21.894531 L 29.535156 22.152344 C 29.488281 22.195312 29.457031 22.195312 29.414062 22.152344 L 29.210938 21.949219 C 29.175781 21.914062 29.175781 21.859375 29.210938 21.824219 L 29.464844 21.570312 C 29.488281 21.546875 29.511719 21.542969 29.527344 21.542969 C 29.539062 21.542969 29.566406 21.546875 29.585938 21.570312 L 29.789062 21.773438 C 29.824219 21.804688 29.824219 21.859375 29.789062 21.894531 Z M 28.054688 23.710938 C 28.003906 23.65625 27.972656 23.585938 27.972656 23.507812 C 27.972656 23.433594 28.003906 23.359375 28.054688 23.304688 C 28.109375 23.253906 28.183594 23.222656 28.257812 23.222656 C 28.335938 23.222656 28.40625 23.253906 28.460938 23.304688 C 28.515625 23.359375 28.542969 23.433594 28.542969 23.507812 C 28.542969 23.585938 28.515625 23.65625 28.460938 23.710938 C 28.351562 23.820312 28.164062 23.820312 28.054688 23.710938 Z M 25.457031 26.75 C 25.351562 26.851562 25.171875 26.851562 25.070312 26.75 L 17.097656 18.746094 C 17.046875 18.695312 17.019531 18.628906 17.019531 18.554688 C 17.019531 18.480469 17.046875 18.410156 17.097656 18.359375 L 30.25 5.160156 C 30.300781 5.109375 30.371094 5.078125 30.445312 5.078125 C 30.515625 5.078125 30.585938 5.109375 30.636719 5.160156 L 38.609375 13.160156 C 38.660156 13.210938 38.6875 13.28125 38.6875 13.351562 C 38.6875 13.425781 38.660156 13.496094 38.609375 13.546875 L 37.097656 15.066406 L 35.09375 13.828125 C 34.859375 13.683594 34.558594 13.71875 34.359375 13.914062 L 25.6875 22.617188 C 25.480469 22.828125 25.453125 23.152344 25.625 23.390625 L 26.949219 25.25 Z M 35.273438 24.550781 C 34.832031 24.550781 34.476562 24.191406 34.476562 23.75 C 34.476562 23.082031 33.933594 22.539062 33.269531 22.539062 L 32.464844 22.539062 C 31.800781 22.539062 31.257812 23.082031 31.257812 23.75 C 31.257812 24.191406 30.902344 24.550781 30.460938 24.550781 L 28.808594 24.550781 L 36.585938 16.742188 L 36.585938 24.550781 Z M 38.722656 28.421875 C 37.769531 28.421875 36.996094 27.644531 36.996094 26.691406 L 36.996094 24.960938 L 38.722656 24.960938 C 39.671875 24.960938 40.445312 25.738281 40.445312 26.691406 C 40.445312 27.644531 39.671875 28.421875 38.722656 28.421875 Z M 38.722656 28.421875 " fill-opacity="1" fill-rule="nonzero"/></g></svg>